<?xml version="1.0" encoding="UTF-8"?>
<svg width="32px" height="32px" viewBox="0 0 32 32" version="1.1" xmlns="http://www.w3.org/2000/svg" xmlns:xlink="http://www.w3.org/1999/xlink">
    <title>icons_linkedin</title>
    <g id="Symbols" stroke="none" stroke-width="1" fill="none" fill-rule="evenodd">
        <g id="icons_linkedin" fill="#FFFFFF" fill-rule="nonzero">
            <path d="M28.4444444,0 L3.55555556,0 C1.59027733,0 0,1.59027733 0,3.55555556 L0,28.4444444 C0,30.4097227 1.59027733,32 3.55555556,32 L28.4444444,32 C30.4097227,32 32,30.4097227 32,28.4444444 L32,3.55555556 C32,1.59027733 30.4097227,0 28.4444444,0 Z M10.6666667,24.8888889 L6.18055467,24.8888889 L6.18055467,12.4444444 L10.6666667,12.4444444 L10.6666667,24.8888889 Z M8.34722133,10.1666667 C6.97222222,10.1666667 6.05555556,9.25 6.05555556,8.02777778 C6.05555556,6.81249956 6.97222222,5.89583289 8.493056,5.89583289 C9.86805511,5.89583289 10.7847218,6.81249956 10.7847218,8.02777778 C10.7847218,9.25 9.86805511,10.1666667 8.34722133,10.1666667 Z M26.6666667,24.8888889 L22.3263893,24.8888889 L22.3263893,18.0902773 C22.3263893,16.2083342 21.1666667,15.7708338 20.7361102,15.7708338 C20.2986116,15.7708338 18.8541671,16.0624996 18.8541671,18.0902773 C18.8541671,18.3750009 18.8541671,24.8888889 18.8541671,24.8888889 L14.3680551,24.8888889 L14.3680551,12.4444444 L18.8541671,12.4444444 L18.8541671,14.1805547 C19.4305564,13.1666667 20.5902773,12.4444444 22.756944,12.4444444 C24.9305564,12.4444444 26.6666667,14.1805547 26.6666667,18.0902773 L26.6666667,24.8888889 Z" id="Shape"></path>
        </g>
    </g>
</svg>