<?xml version="1.0" encoding="UTF-8"?>
<svg width="199.504222px" height="66px" viewBox="0 0 199.504222 66" version="1.1" xmlns="http://www.w3.org/2000/svg" xmlns:xlink="http://www.w3.org/1999/xlink">
    <title>Logo_Complete</title>
    <g id="Symbols" stroke="none" stroke-width="1" fill="none" fill-rule="evenodd">
        <g id="Logo_Complete">
            <g id="Logo_Isotype">
                <rect id="Rectangle" fill="#FFFFFF" x="0" y="0" width="66" height="66"></rect>
                <path d="M65.99691,0 L65.99691,21.3036154 L59.2921169,32.1071658 L51.5636143,19.4615385 L45.7145931,19.4615385 L45.7145931,46.5221527 L51.9095145,46.5221527 L51.9095145,30.1998774 L57.8890754,39.9502892 L60.430088,39.9502892 L65.99691,31.295 L65.99691,66 L1.11656716e-14,66 L1.11656716e-14,37.0200769 L2.91145716,37.0200769 L8.24171328,46.5221527 L15.716766,46.5384615 L9.68498986,36.0948547 C9.83820226,36.0204768 9.98935539,35.9416177 10.1384493,35.8582774 C11.5248572,35.0833049 12.6178014,34.020008 13.4172819,32.6683867 C14.2167625,31.3167654 14.6165027,29.7880621 14.6165027,28.082277 C14.6165027,26.4292439 14.2167625,24.9556083 13.4172819,23.66137 C12.6178014,22.3671316 11.5221501,21.3436002 10.1303281,20.5907755 C8.73850611,19.8379508 7.17674184,19.4615385 5.44503533,19.4615385 L1.11656716e-14,19.4615385 L1.11656716e-14,0 L65.99691,0 Z M39.587955,41.36775 L20.7656393,41.36775 L20.7656393,46.5221527 L39.587955,46.5221527 L39.587955,41.36775 Z M35.310156,30.1998774 L20.7656393,30.1998774 L20.7656393,35.3542801 L35.310156,35.3542801 L35.310156,30.1998774 Z M4.30988125,24.9467491 C5.11236961,24.9467491 5.80376888,25.091918 6.38407905,25.3822559 C6.96438922,25.6725937 7.40734195,26.0778989 7.71293721,26.5981714 C8.01853248,27.118444 8.17133011,27.7333481 8.17133011,28.4428838 C8.17133011,29.1383255 8.03768232,29.7518202 7.77038672,30.283368 C7.50309112,30.8149158 7.12209964,31.2304895 6.62741229,31.5300892 C6.13272494,31.8296888 5.54268946,31.9794887 4.85730584,31.9794887 L5.46864141e-14,31.9786923 L5.46864141e-14,24.9463077 L4.30988125,24.9467491 Z M39.587955,19.891072 L20.7656393,19.891072 L20.7656393,25.0454747 L39.587955,25.0454747 L39.587955,19.891072 Z" id="Combined-Shape-Copy-4" fill="#2A7A40"></path>
            </g>
            <path d="M88.0908471,26.64 L93.6386921,40.9846154 L90.8721258,40.9846154 L89.638,37.71 L83.905,37.71 L82.668697,40.9846154 L80,40.9846154 L85.5891036,26.64 L88.0908471,26.64 Z M86.7782473,29.730176 C86.6184013,30.2694865 86.498037,30.6624159 86.4171545,30.9089639 C86.2958307,31.2787861 86.1744536,31.6329721 86.0530232,31.9715221 C85.9315928,32.3100721 85.823009,32.6150019 85.727272,32.8863115 L84.777,35.4 L88.768,35.4 L87.7969194,32.8209923 C87.7653625,32.7397702 87.7273688,32.6344936 87.6829385,32.5051626 L87.5854957,32.214428 C87.5678248,32.1606268 87.5494388,32.1041529 87.5303376,32.0450062 C87.4157303,31.6901264 87.2903553,31.3060558 87.1542125,30.8927942 C87.0634507,30.6172865 86.9381289,30.2297471 86.7782473,29.730176 Z M102.1418,41.1895385 C101.302981,41.1895385 100.535965,41.0836082 99.8407522,40.8717476 C99.1455391,40.659887 98.5200499,40.343537 97.9642846,39.9226976 C97.4085193,39.5018582 96.9121898,38.9868288 96.4752963,38.3776096 L98.2027211,36.4061856 C98.8741598,37.3458433 99.5301398,37.9910308 100.170661,38.3417481 C100.811183,38.6924654 101.534968,38.867824 102.342016,38.867824 C102.807908,38.867824 103.230089,38.7977019 103.60856,38.6574577 C103.98703,38.5172135 104.285222,38.3217361 104.503136,38.0710255 C104.72105,37.8203149 104.830007,37.5285663 104.830007,37.1957798 C104.830007,36.9637471 104.785603,36.7482043 104.696796,36.5491514 C104.607988,36.3500986 104.476163,36.1707909 104.301321,36.0112284 C104.126478,35.8516659 103.910217,35.7058183 103.652537,35.5736856 C103.394857,35.4415529 103.103168,35.3250562 102.77747,35.2241957 C102.451772,35.1233351 102.087535,35.0360827 101.684757,34.9624385 C100.931227,34.8038365 100.274607,34.5988067 99.7148974,34.347349 C99.1551875,34.0958913 98.6868968,33.7843442 98.3100255,33.4127077 C97.9331541,33.0410712 97.6539388,32.6175101 97.4723795,32.1420245 C97.2908203,31.6665389 97.2000407,31.1322981 97.2000407,30.5393019 C97.2000407,29.9403288 97.3332516,29.3866096 97.5996736,28.8781442 C97.8660955,28.3696788 98.2307599,27.9295745 98.6936666,27.5578312 C99.1565734,27.186088 99.6973065,26.8990889 100.315866,26.6968341 C100.934425,26.4945793 101.595843,26.3934519 102.300118,26.3934519 C103.106526,26.3934519 103.827859,26.4897764 104.464116,26.6824255 C105.100373,26.8750745 105.658697,27.1585514 106.139088,27.5328562 C106.619479,27.9071611 107.020765,28.3619942 107.342944,28.8973558 L105.579058,30.626074 C105.300376,30.2087567 104.991896,29.8588933 104.653618,29.5764837 C104.31534,29.294074 103.947744,29.0813062 103.55083,28.9381803 C103.153915,28.7950543 102.735945,28.7234913 102.296919,28.7234913 C101.809279,28.7234913 101.385658,28.7936135 101.026058,28.9338577 C100.666458,29.0741019 100.38447,29.2716072 100.180096,29.5263736 C99.9757222,29.7811399 99.8735352,30.0843087 99.8735352,30.4358798 C99.8735352,30.7005721 99.9329711,30.9399159 100.051843,31.1539111 C100.170715,31.3679062 100.344118,31.556713 100.572053,31.7203312 C100.799988,31.8839495 101.090451,32.0277159 101.443442,32.1516303 C101.796432,32.2755447 102.201502,32.3838231 102.658652,32.4764654 C103.409196,32.6348538 104.082021,32.8390298 104.677126,33.0889933 C105.272231,33.3389567 105.780714,33.6367889 106.202575,33.9824899 C106.624437,34.3281909 106.945337,34.7246423 107.165276,35.1718442 C107.385216,35.6190462 107.495185,36.1135298 107.495185,36.6552952 C107.495185,37.5985817 107.273221,38.4090952 106.829291,39.0868356 C106.385361,39.764576 105.763336,40.2844615 104.963218,40.6464923 C104.163099,41.0085231 103.222626,41.1895385 102.1418,41.1895385 Z M121.517976,26.64 L121.517976,29.0673779 L114.772672,29.0673779 L114.772,32.4574519 L120.467321,32.4578942 L120.467321,34.8394846 L114.772,34.8394519 L114.772672,38.5572375 L121.593137,38.5572375 L121.593137,40.9846154 L112.149072,40.9846154 L112.149072,26.64 L121.517976,26.64 Z M131.190478,41.1895385 C130.351659,41.1895385 129.584644,41.0836082 128.889431,40.8717476 C128.194217,40.659887 127.568728,40.343537 127.012963,39.9226976 C126.457198,39.5018582 125.960868,38.9868288 125.523975,38.3776096 L127.251399,36.4061856 C127.922838,37.3458433 128.578818,37.9910308 129.21934,38.3417481 C129.859861,38.6924654 130.583646,38.867824 131.390694,38.867824 C131.856586,38.867824 132.278767,38.7977019 132.657238,38.6574577 C133.035708,38.5172135 133.333901,38.3217361 133.551814,38.0710255 C133.769728,37.8203149 133.878685,37.5285663 133.878685,37.1957798 C133.878685,36.9637471 133.834281,36.7482043 133.745474,36.5491514 C133.656667,36.3500986 133.524842,36.1707909 133.349999,36.0112284 C133.175156,35.8516659 132.958895,35.7058183 132.701215,35.5736856 C132.443535,35.4415529 132.151847,35.3250562 131.826149,35.2241957 C131.500451,35.1233351 131.136213,35.0360827 130.733435,34.9624385 C129.979905,34.8038365 129.323286,34.5988067 128.763576,34.347349 C128.203866,34.0958913 127.735575,33.7843442 127.358704,33.4127077 C126.981832,33.0410712 126.702617,32.6175101 126.521058,32.1420245 C126.339499,31.6665389 126.248719,31.1322981 126.248719,30.5393019 C126.248719,29.9403288 126.38193,29.3866096 126.648352,28.8781442 C126.914774,28.3696788 127.279438,27.9295745 127.742345,27.5578312 C128.205252,27.186088 128.745985,26.8990889 129.364544,26.6968341 C129.983104,26.4945793 130.644521,26.3934519 131.348796,26.3934519 C132.155205,26.3934519 132.876538,26.4897764 133.512795,26.6824255 C134.149052,26.8750745 134.707376,27.1585514 135.187767,27.5328562 C135.668158,27.9071611 136.069443,28.3619942 136.391623,28.8973558 L134.627737,30.626074 C134.349055,30.2087567 134.040574,29.8588933 133.702296,29.5764837 C133.364018,29.294074 132.996422,29.0813062 132.599508,28.9381803 C132.202594,28.7950543 131.784623,28.7234913 131.345598,28.7234913 C130.857957,28.7234913 130.434337,28.7936135 130.074736,28.9338577 C129.715136,29.0741019 129.433149,29.2716072 129.228775,29.5263736 C129.024401,29.7811399 128.922214,30.0843087 128.922214,30.4358798 C128.922214,30.7005721 128.981649,30.9399159 129.100521,31.1539111 C129.219393,31.3679062 129.392796,31.556713 129.620732,31.7203312 C129.848667,31.8839495 130.13913,32.0277159 130.49212,32.1516303 C130.84511,32.2755447 131.25018,32.3838231 131.70733,32.4764654 C132.457875,32.6348538 133.130699,32.8390298 133.725804,33.0889933 C134.320909,33.3389567 134.829392,33.6367889 135.251254,33.9824899 C135.673115,34.3281909 135.994015,34.7246423 136.213955,35.1718442 C136.433894,35.6190462 136.543864,36.1135298 136.543864,36.6552952 C136.543864,37.5985817 136.321899,38.4090952 135.877969,39.0868356 C135.434039,39.764576 134.812015,40.2844615 134.011896,40.6464923 C133.211777,41.0085231 132.271305,41.1895385 131.190478,41.1895385 Z M147.383025,41.1895385 C146.348254,41.1895385 145.395361,41.0051077 144.524346,40.6362462 C143.653331,40.2673846 142.894311,39.7509678 142.247286,39.0869957 C141.600261,38.4230236 141.099987,37.6415409 140.746464,36.7425476 C140.39294,35.8435543 140.216179,34.8598702 140.216179,33.7914952 C140.216179,32.7203452 140.39294,31.7359673 140.746464,30.8383615 C141.099987,29.9407558 141.600261,29.1599668 142.247286,28.4959947 C142.894311,27.8320226 143.653331,27.3156058 144.524346,26.9467442 C145.395361,26.5778827 146.346868,26.3934519 147.378867,26.3934519 C148.413637,26.3934519 149.365837,26.5778827 150.235466,26.9467442 C151.105096,27.3156058 151.863423,27.8347442 152.510447,28.5041596 C153.157472,29.173575 153.657746,29.9570856 154.01127,30.8546913 C154.364793,31.7522971 154.541555,32.7298442 154.541555,33.7873327 C154.541555,34.8475962 154.364793,35.8272245 154.01127,36.7262178 C153.657746,37.6252111 153.157472,38.4094154 152.510447,39.0788308 C151.863423,39.7482462 151.105096,40.2673846 150.235466,40.6362462 C149.365837,41.0051077 148.415023,41.1895385 147.383025,41.1895385 Z M147.378867,38.6414481 C148.027491,38.6414481 148.622329,38.521376 149.163382,38.2812317 C149.704435,38.0410875 150.173312,37.7020572 150.570013,37.2641409 C150.966714,36.8262245 151.2761,36.3125827 151.498172,35.7232154 C151.720244,35.1338481 151.831279,34.4899413 151.831279,33.7914952 C151.831279,33.0928356 151.720244,32.4488755 151.498172,31.8596149 C151.2761,31.2703543 150.966714,30.7567125 150.570013,30.3186894 C150.173312,29.8806663 149.704435,29.5416361 149.163382,29.3015986 C148.622329,29.0615611 148.027491,28.9415423 147.378867,28.9415423 C146.730243,28.9415423 146.135351,29.0615611 145.594192,29.3015986 C145.053032,29.5416361 144.581436,29.8779447 144.179405,30.3105245 C143.777373,30.7431043 143.46804,31.2540779 143.251406,31.8434452 C143.034771,32.4328125 142.926454,33.0821625 142.926454,33.7914952 C142.926454,34.4899413 143.034771,35.1365697 143.251406,35.7313803 C143.46804,36.3261909 143.777373,36.8398327 144.179405,37.2723058 C144.581436,37.7047788 145.053032,38.0410875 145.594192,38.2812317 C146.135351,38.521376 146.730243,38.6414481 147.378867,38.6414481 Z M165.352324,26.64 C166.207348,26.64 166.988436,26.8408139 167.69559,27.2424418 C168.402743,27.6440697 168.963786,28.1891437 169.378718,28.8776639 C169.793649,29.5661841 170.001115,30.3435577 170.001115,31.2097846 C170.001115,32.0331058 169.793649,32.787799 169.378718,33.4738644 C168.963786,34.1599298 168.405462,34.7058577 167.703746,35.1116481 C167.569731,35.1891461 167.432723,35.2592438 167.292721,35.3219412 L170.578736,41.0009452 L167.438603,40.9846154 L164.475872,35.7198 L161.730201,35.7203337 L161.730201,40.9846154 L159.12739,40.9846154 L159.12739,26.64 L165.352324,26.64 Z M164.900718,29.0465654 L161.730201,29.0465654 L161.730201,33.3970183 L165.373753,33.3970183 C165.758407,33.3970183 166.098604,33.304963 166.394344,33.1208524 C166.690084,32.9367418 166.920418,32.6822957 167.085346,32.3575139 C167.250274,32.0327322 167.332738,31.6684067 167.332738,31.2645375 C167.332738,30.8224587 167.231297,30.4357197 167.028416,30.1043207 C166.825534,29.7729216 166.539442,29.5137793 166.17014,29.3268937 C165.800838,29.1400082 165.377698,29.0465654 164.900718,29.0465654 Z M184.478334,26.64 L184.478334,29.0673779 L177.73303,29.0673779 L177.733,32.4574519 L183.427679,32.4578942 L183.427679,34.8394846 L177.733,34.8394519 L177.73303,38.5572375 L184.553495,38.5572375 L184.553495,40.9846154 L175.109429,40.9846154 L175.109429,26.64 L184.478334,26.64 Z M194.150836,41.1895385 C193.312017,41.1895385 192.545001,41.0836082 191.849788,40.8717476 C191.154575,40.659887 190.529086,40.343537 189.973321,39.9226976 C189.417555,39.5018582 188.921226,38.9868288 188.484332,38.3776096 L190.211757,36.4061856 C190.883196,37.3458433 191.539176,37.9910308 192.179697,38.3417481 C192.820219,38.6924654 193.544004,38.867824 194.351052,38.867824 C194.816944,38.867824 195.239125,38.7977019 195.617596,38.6574577 C195.996066,38.5172135 196.294258,38.3217361 196.512172,38.0710255 C196.730086,37.8203149 196.839043,37.5285663 196.839043,37.1957798 C196.839043,36.9637471 196.794639,36.7482043 196.705832,36.5491514 C196.617024,36.3500986 196.485199,36.1707909 196.310357,36.0112284 C196.135514,35.8516659 195.919253,35.7058183 195.661573,35.5736856 C195.403893,35.4415529 195.112204,35.3250562 194.786506,35.2241957 C194.460809,35.1233351 194.096571,35.0360827 193.693793,34.9624385 C192.940263,34.8038365 192.283643,34.5988067 191.723934,34.347349 C191.164224,34.0958913 190.695933,33.7843442 190.319062,33.4127077 C189.94219,33.0410712 189.662975,32.6175101 189.481416,32.1420245 C189.299856,31.6665389 189.209077,31.1322981 189.209077,30.5393019 C189.209077,29.9403288 189.342288,29.3866096 189.60871,28.8781442 C189.875132,28.3696788 190.239796,27.9295745 190.702703,27.5578312 C191.16561,27.186088 191.706343,26.8990889 192.324902,26.6968341 C192.943462,26.4945793 193.604879,26.3934519 194.309154,26.3934519 C195.115563,26.3934519 195.836895,26.4897764 196.473152,26.6824255 C197.109409,26.8750745 197.667733,27.1585514 198.148124,27.5328562 C198.628515,27.9071611 199.029801,28.3619942 199.35198,28.8973558 L197.588095,30.626074 C197.309412,30.2087567 197.000932,29.8588933 196.662654,29.5764837 C196.324376,29.294074 195.95678,29.0813062 195.559866,28.9381803 C195.162951,28.7950543 194.744981,28.7234913 194.305955,28.7234913 C193.818315,28.7234913 193.394694,28.7936135 193.035094,28.9338577 C192.675494,29.0741019 192.393507,29.2716072 192.189132,29.5263736 C191.984758,29.7811399 191.882571,30.0843087 191.882571,30.4358798 C191.882571,30.7005721 191.942007,30.9399159 192.060879,31.1539111 C192.179751,31.3679062 192.353154,31.556713 192.581089,31.7203312 C192.809025,31.8839495 193.099487,32.0277159 193.452478,32.1516303 C193.805468,32.2755447 194.210538,32.3838231 194.667688,32.4764654 C195.418232,32.6348538 196.091057,32.8390298 196.686162,33.0889933 C197.281267,33.3389567 197.78975,33.6367889 198.211611,33.9824899 C198.633473,34.3281909 198.954373,34.7246423 199.174313,35.1718442 C199.394252,35.6190462 199.504222,36.1135298 199.504222,36.6552952 C199.504222,37.5985817 199.282257,38.4090952 198.838327,39.0868356 C198.394397,39.764576 197.772372,40.2844615 196.972254,40.6464923 C196.172135,41.0085231 195.231662,41.1895385 194.150836,41.1895385 Z" id="Combined-Shape-Copy" fill="#909DAA" fill-rule="nonzero"></path>
        </g>
    </g>
</svg>