<?xml version="1.0" encoding="UTF-8"?>
<svg width="66px" height="66px" viewBox="0 0 66 66" version="1.1" xmlns="http://www.w3.org/2000/svg" xmlns:xlink="http://www.w3.org/1999/xlink">
    <title>Logo_Isotype Copy</title>
    <g id="Symbols" stroke="none" stroke-width="1" fill="none" fill-rule="evenodd">
        <g id="Logo_Isotype-Copy">
            <rect id="Rectangle" fill="#FFFFFF" x="0" y="0" width="66" height="66"></rect>
            <path d="M65.99691,0 L65.99691,21.3036154 L59.2921169,32.1071658 L51.5636143,19.4615385 L45.7145931,19.4615385 L45.7145931,46.5221527 L51.9095145,46.5221527 L51.9095145,30.1998774 L57.8890754,39.9502892 L60.430088,39.9502892 L65.99691,31.295 L65.99691,66 L1.11656716e-14,66 L1.11656716e-14,37.0200769 L2.91145716,37.0200769 L8.24171328,46.5221527 L15.716766,46.5384615 L9.68498986,36.0948547 C9.83820226,36.0204768 9.98935539,35.9416177 10.1384493,35.8582774 C11.5248572,35.0833049 12.6178014,34.020008 13.4172819,32.6683867 C14.2167625,31.3167654 14.6165027,29.7880621 14.6165027,28.082277 C14.6165027,26.4292439 14.2167625,24.9556083 13.4172819,23.66137 C12.6178014,22.3671316 11.5221501,21.3436002 10.1303281,20.5907755 C8.73850611,19.8379508 7.17674184,19.4615385 5.44503533,19.4615385 L1.11656716e-14,19.4615385 L1.11656716e-14,0 L65.99691,0 Z M39.587955,41.36775 L20.7656393,41.36775 L20.7656393,46.5221527 L39.587955,46.5221527 L39.587955,41.36775 Z M35.310156,30.1998774 L20.7656393,30.1998774 L20.7656393,35.3542801 L35.310156,35.3542801 L35.310156,30.1998774 Z M4.30988125,24.9467491 C5.11236961,24.9467491 5.80376888,25.091918 6.38407905,25.3822559 C6.96438922,25.6725937 7.40734195,26.0778989 7.71293721,26.5981714 C8.01853248,27.118444 8.17133011,27.7333481 8.17133011,28.4428838 C8.17133011,29.1383255 8.03768232,29.7518202 7.77038672,30.283368 C7.50309112,30.8149158 7.12209964,31.2304895 6.62741229,31.5300892 C6.13272494,31.8296888 5.54268946,31.9794887 4.85730584,31.9794887 L5.46864141e-14,31.9786923 L5.46864141e-14,24.9463077 L4.30988125,24.9467491 Z M39.587955,19.891072 L20.7656393,19.891072 L20.7656393,25.0454747 L39.587955,25.0454747 L39.587955,19.891072 Z" id="Combined-Shape-Copy-4" fill="#2A7A40"></path>
        </g>
    </g>
</svg>